<svg xmlns="http://www.w3.org/2000/svg" style="display: none;">
    <symbol id="magnified" viewBox="0 0 24 24">
        <path d="M23.707,22.293l-5.969-5.969a10.016,10.016,0,1,0-1.414,1.414l5.969,5.969a1,1,0,0,0,1.414-1.414ZM10,18a8,8,0,1,1,8-8A8.009,8.009,0,0,1,10,18Z"/>
    </symbol>
    <symbol id="clear" viewBox="0 0 32 32">
        <path d="M4,29a1,1,0,0,1-.71-.29,1,1,0,0,1,0-1.42l24-24a1,1,0,1,1,1.42,1.42l-24,24A1,1,0,0,1,4,29Z"/>
        <path d="M28,29a1,1,0,0,1-.71-.29l-24-24A1,1,0,0,1,4.71,3.29l24,24a1,1,0,0,1,0,1.42A1,1,0,0,1,28,29Z"/>
    </symbol>
    <symbol id="collapse_up" viewBox="0 0 1228.80 1228.80">
        <path d="M106.666667 659.2L172.8 725.333333 512 386.133333 851.2 725.333333l66.133333-66.133333L512 256z"/>
    </symbol>
    <symbol id="collapse_down" viewBox="0 0 950 950">
        <path transform="matrix(-1,0,0,-1,800,783.333)" d="M83.333,515L135,566.667L400,301.667L665,566.667L716.667,515L400,200L83.333,515Z"/>
    </symbol>
    <symbol id="star" viewBox="0 0 24 24">
        <path d="M12 17.27L18.18 21l-1.64-7.03L22 9.24l-7.19-.61L12 2 9.19 8.63 2 9.24l5.46 4.73L5.82 21z"/>
    </symbol>
</svg>

